<?xml version="1.0" encoding="utf-8"?>
<!-- Generator: Adobe Illustrator 16.0.0, SVG Export Plug-In . SVG Version: 6.00 Build 0)  -->
<!DOCTYPE svg PUBLIC "-//W3C//DTD SVG 1.1//EN" "http://www.w3.org/Graphics/SVG/1.1/DTD/svg11.dtd">
<svg version="1.1" id="图层_1" xmlns="http://www.w3.org/2000/svg" xmlns:xlink="http://www.w3.org/1999/xlink" x="0px" y="0px"
	 width="36px" height="36px" viewBox="0 0 36 36" enable-background="new 0 0 36 36" xml:space="preserve">
<g>
	<path fill="#D30909" d="M18.021,33.99c-2.163,0-4.263-0.423-6.238-1.256c-1.909-0.806-3.624-1.962-5.096-3.432
		c-1.473-1.468-2.627-3.18-3.434-5.084c-0.837-1.974-1.261-4.066-1.261-6.229c0-2.158,0.424-4.254,1.261-6.228
		c0.808-1.905,1.962-3.617,3.434-5.086c1.472-1.471,3.186-2.623,5.096-3.429c1.975-0.835,4.075-1.258,6.238-1.258
		c2.164,0,4.263,0.423,6.24,1.258c1.907,0.806,3.622,1.959,5.092,3.429c1.474,1.469,2.631,3.18,3.437,5.086
		c0.836,1.973,1.262,4.07,1.262,6.228c0,2.162-0.426,4.255-1.262,6.229c-0.806,1.905-1.963,3.616-3.437,5.085
		c-1.47,1.471-3.185,2.625-5.092,3.431C22.284,33.567,20.186,33.99,18.021,33.99L18.021,33.99z M18.021,3.582
		c-3.854,0-7.479,1.499-10.206,4.22c-2.727,2.721-4.227,6.34-4.227,10.188c0,3.85,1.501,7.467,4.227,10.188
		c2.726,2.721,6.351,4.221,10.206,4.221c3.856,0,7.481-1.5,10.208-4.221c2.724-2.722,4.224-6.339,4.224-10.188
		c0-3.848-1.5-7.467-4.224-10.188C25.503,5.081,21.878,3.582,18.021,3.582L18.021,3.582z"/>
	<path fill="#D30909" d="M18.021,25.99c-1.081,0-2.131-0.211-3.12-0.629c-0.953-0.402-1.811-0.98-2.547-1.713
		c-0.735-0.734-1.314-1.591-1.717-2.542c-0.417-0.989-0.63-2.037-0.63-3.116s0.213-2.127,0.63-3.114
		c0.403-0.953,0.981-1.808,1.717-2.542c0.736-0.734,1.593-1.313,2.547-1.714c0.989-0.417,2.039-0.628,3.12-0.628
		c1.082,0,2.133,0.211,3.122,0.628c0.953,0.403,1.81,0.98,2.547,1.714c0.734,0.735,1.313,1.59,1.715,2.542
		c0.42,0.987,0.631,2.033,0.631,3.114c0,1.079-0.211,2.127-0.631,3.116c-0.403,0.951-0.982,1.808-1.715,2.542
		c-0.737,0.733-1.594,1.311-2.547,1.713C20.154,25.779,19.104,25.99,18.021,25.99L18.021,25.99z"/>
</g>
</svg>
