<?xml version="1.0" encoding="utf-8"?>
<!-- Generator: Adobe Illustrator 16.0.0, SVG Export Plug-In . SVG Version: 6.00 Build 0)  -->
<!DOCTYPE svg PUBLIC "-//W3C//DTD SVG 1.1//EN" "http://www.w3.org/Graphics/SVG/1.1/DTD/svg11.dtd">
<svg version="1.1" id="图层_1" xmlns="http://www.w3.org/2000/svg" xmlns:xlink="http://www.w3.org/1999/xlink" x="0px" y="0px"
	 width="48px" height="48px" viewBox="0 0 48 48" enable-background="new 0 0 48 48" xml:space="preserve">
<g>
	<path fill="#0A7EDF" d="M37.22,21.346H18.616c-0.988,0-1.79,0.802-1.79,1.791v13.07c0,0.992,0.801,1.793,1.79,1.793h18.605
		c0.989,0,1.789-0.801,1.789-1.793v-13.07c0-0.989-0.803-1.791-1.792-1.791H37.22z M28.923,30.012v2.855
		c0,0.129-0.104,0.236-0.232,0.236h-1.539c-0.133,0-0.238-0.107-0.238-0.236v-2.855c-0.722-0.369-1.223-1.109-1.223-1.98
		c0-1.227,1-2.229,2.229-2.229c1.23,0,2.228,1.002,2.228,2.229c0.005,0.871-0.499,1.611-1.22,1.98H28.923z M28.923,30.012"/>
	<path fill="#0A7EDF" d="M11.796,16.689c0-2.462,2.005-4.467,4.467-4.467c2.463,0,4.465,2.005,4.465,4.467v4.656h2.782v-4.773
		c0-3.998-3.25-7.25-7.248-7.25c-3.999,0-7.252,3.252-7.252,7.25v4.773h2.785v-4.656H11.796z M11.796,16.689"/>
</g>
<g id="XMLID_1_">
	<path id="XMLID_4_" fill="#0A7EDF" d="M24,0C10.725,0,0,10.724,0,24c0,13.275,10.724,24,24,24s24-10.725,24-24
		C48,10.724,37.275,0,24,0z M24,46.979C11.336,46.979,1.021,36.664,1.021,24S11.336,1.021,24,1.021S46.979,11.336,46.979,24
		S36.664,46.979,24,46.979z"/>
</g>
</svg>
