<?xml version="1.0" encoding="utf-8"?>
<!-- Generator: Adobe Illustrator 16.0.0, SVG Export Plug-In . SVG Version: 6.00 Build 0)  -->
<!DOCTYPE svg PUBLIC "-//W3C//DTD SVG 1.1//EN" "http://www.w3.org/Graphics/SVG/1.1/DTD/svg11.dtd">
<svg version="1.1" id="图层_1" xmlns="http://www.w3.org/2000/svg" xmlns:xlink="http://www.w3.org/1999/xlink" x="0px" y="0px"
	 width="25px" height="25px" viewBox="0 0 25 25" enable-background="new 0 0 25 25" xml:space="preserve">
<path fill="#078DFF" d="M12.5-0.001C5.597-0.001,0,5.596,0,12.499S5.597,25,12.5,25S25,19.402,25,12.499S19.403-0.001,12.5-0.001z
	 M16.485,14.01c0.56,0,1.015,0.455,1.015,1.018c0,0.559-0.455,1.016-1.015,1.016h-2.97v2.947c0,0.559-0.451,1.01-1.01,1.01h-0.012
	c-0.559,0-1.01-0.451-1.01-1.01v-2.947H8.516c-0.561,0-1.016-0.457-1.016-1.016c0-0.563,0.455-1.018,1.016-1.018h2.969V12.63H8.516
	c-0.561,0-1.016-0.455-1.016-1.016s0.455-1.016,1.016-1.016h1.628L8.535,7.356C8.33,6.991,8.551,6.468,9.029,6.184
	c0.479-0.282,1.033-0.216,1.238,0.147l2.061,4.154c0.02,0.036,0.035,0.075,0.048,0.113h0.517c0.01-0.022,0.019-0.043,0.03-0.064
	l2.085-4.358c0.208-0.38,0.767-0.449,1.25-0.154c0.48,0.294,0.705,0.841,0.497,1.22l-1.604,3.356h1.335
	c0.56,0,1.015,0.455,1.015,1.016s-0.455,1.016-1.015,1.016h-2.97v1.379H16.485z"/>
</svg>
