<?xml version="1.0" encoding="utf-8"?>
<!-- Generator: Adobe Illustrator 16.0.0, SVG Export Plug-In . SVG Version: 6.00 Build 0)  -->
<!DOCTYPE svg PUBLIC "-//W3C//DTD SVG 1.1//EN" "http://www.w3.org/Graphics/SVG/1.1/DTD/svg11.dtd">
<svg version="1.1" id="图层_1" xmlns="http://www.w3.org/2000/svg" xmlns:xlink="http://www.w3.org/1999/xlink" x="0px" y="0px"
	 width="48px" height="48px" viewBox="0 0 48 48" enable-background="new 0 0 48 48" xml:space="preserve">
<g>
	<g>
		<path fill="#0A7EDF" d="M16.787,36.383c0-0.113,0-0.229,0-0.346c0-1.311,0-2.631,0-3.941c0-0.588-0.207-0.791-0.793-0.791
			c-1.136,0-2.273,0-3.409,0c-0.547,0-0.767,0.223-0.77,0.765c-0.001,1.332,0,2.665,0,3.997c0,0.106,0,0.214,0,0.402
			c-0.352-0.193-0.666-0.344-0.948-0.533c-1.246-0.849-2.065-1.979-2.176-3.521c-0.125-1.77,0.676-3.102,2.076-4.112
			c0.282-0.2,0.593-0.365,0.909-0.513c0.194-0.089,0.252-0.192,0.251-0.401c-0.007-3.657-0.003-7.315-0.003-10.977
			c0-0.841-0.009-1.68,0.001-2.521c0.019-1.225,0.928-2.197,2.167-2.33c1.143-0.124,2.249,0.667,2.513,1.814
			c0.058,0.249,0.074,0.515,0.074,0.773c0.004,4.382,0.006,8.765-0.001,13.149c0,0.277,0.081,0.415,0.339,0.537
			c1.397,0.669,2.43,1.703,2.786,3.24c0.441,1.906-0.259,3.439-1.76,4.63c-0.36,0.282-0.774,0.496-1.164,0.742
			C16.848,36.427,16.817,36.406,16.787,36.383z"/>
		<path fill="#0A7EDF" d="M37.844,26.725c0.6,0.148,0.886,0.494,0.827,0.987c-0.05,0.408-0.378,0.742-0.79,0.745
			c-1.385,0.013-2.771,0.013-4.155,0c-0.41-0.002-0.742-0.328-0.801-0.733c-0.061-0.413,0.187-0.81,0.596-0.938
			c0.08-0.025,0.171-0.046,0.271-0.072c0.007-0.735-0.144-1.433-0.468-2.076c-0.863-1.692-2.256-2.578-4.141-2.718
			c-0.187-0.015-0.304,0.037-0.43,0.191c-1.445,1.795-4.045,1.798-5.522,0.004c-0.122-0.148-0.241-0.203-0.428-0.2
			c-0.706,0.008-1.413,0.006-2.12,0c-0.168,0-0.267,0.056-0.381,0.184c-0.265,0.299-0.552,0.579-0.852,0.848
			c-0.175,0.156-0.381,0.254-0.5,0.492c-0.139,0.28-0.559,0.225-0.687-0.073c-0.042-0.092-0.051-0.211-0.053-0.315
			c-0.002-2.093-0.002-4.185-0.002-6.278c0-0.088-0.008-0.205,0.041-0.258c0.105-0.115,0.244-0.261,0.377-0.272
			c0.121-0.01,0.263,0.135,0.378,0.228c0.091,0.075,0.151,0.185,0.236,0.266c0.361,0.344,0.72,0.688,1.091,1.016
			c0.091,0.079,0.217,0.159,0.33,0.161c0.733,0.015,1.468,0.015,2.2,0c0.111-0.001,0.254-0.076,0.326-0.164
			c0.436-0.531,0.958-0.938,1.61-1.159c0.186-0.063,0.244-0.153,0.244-0.346c-0.012-0.85-0.005-1.701-0.005-2.55
			c0-0.105,0-0.209,0-0.325c0.65,0,1.251,0,1.902,0c0,0.115,0,0.217,0,0.322c0,0.839,0.01,1.68-0.002,2.521
			c-0.002,0.208,0.05,0.315,0.259,0.386c0.655,0.223,1.175,0.63,1.607,1.167c0.065,0.081,0.199,0.147,0.309,0.15
			c4.224,0.115,7.733,3.063,8.529,7.189C37.737,25.634,37.772,26.172,37.844,26.725z"/>
		<path fill="#0A7EDF" d="M35.766,29.67c0.777,1.163,1.611,2.307,2.325,3.517c0.762,1.289,0.36,2.878-0.825,3.691
			c-1.585,1.092-3.823,0.077-4.09-1.831c-0.142-0.998,0.225-1.821,0.768-2.604c0.51-0.734,1.027-1.465,1.529-2.201
			C35.599,30.052,35.68,29.834,35.766,29.67z"/>
		<path fill="#0A7EDF" d="M21.801,10.675c0.457,0.013,0.908,0.248,1.205,0.738c0.092,0.15,0.186,0.206,0.361,0.206
			c1.744-0.005,3.486-0.005,5.231,0c0.188,0,0.288-0.067,0.384-0.218c0.371-0.604,1.07-0.861,1.745-0.661
			c0.677,0.201,1.12,0.801,1.116,1.504c-0.012,0.693-0.468,1.276-1.159,1.474c-0.647,0.184-1.359-0.088-1.71-0.685
			c-0.099-0.167-0.213-0.205-0.389-0.205c-1.717,0.005-3.436,0.005-5.152,0c-0.209-0.001-0.333,0.051-0.449,0.24
			c-0.402,0.646-1.19,0.874-1.909,0.58c-0.644-0.265-1.049-1.011-0.916-1.682C20.312,11.193,20.925,10.675,21.801,10.675z"/>
	</g>
</g>
<g id="XMLID_1_">
	<path id="XMLID_4_" fill="#0A7EDF" d="M24,0C10.724,0,0,10.724,0,24c0,13.275,10.724,24,24,24c13.275,0,24-10.725,24-24
		C48,10.724,37.275,0,24,0z M24,46.979C11.336,46.979,1.021,36.664,1.021,24S11.336,1.021,24,1.021S46.979,11.336,46.979,24
		S36.664,46.979,24,46.979z"/>
</g>
</svg>
