<?xml version="1.0" encoding="utf-8"?>
<!-- Generator: Adobe Illustrator 16.0.0, SVG Export Plug-In . SVG Version: 6.00 Build 0)  -->
<!DOCTYPE svg PUBLIC "-//W3C//DTD SVG 1.1//EN" "http://www.w3.org/Graphics/SVG/1.1/DTD/svg11.dtd">
<svg version="1.1" id="图层_1" xmlns="http://www.w3.org/2000/svg" xmlns:xlink="http://www.w3.org/1999/xlink" x="0px" y="0px"
	 width="48px" height="48px" viewBox="0 0 48 48" enable-background="new 0 0 48 48" xml:space="preserve">
<g id="XMLID_1_">
	<path id="XMLID_4_" fill="#0A7EDF" d="M24,0C10.724,0,0,10.724,0,24c0,13.275,10.724,24,24,24c13.275,0,24-10.725,24-24
		C48,10.724,37.275,0,24,0z M24,46.979C11.336,46.979,1.021,36.664,1.021,24S11.336,1.021,24,1.021S46.979,11.336,46.979,24
		S36.664,46.979,24,46.979z"/>
</g>
<g>
	<g>
		<path fill="#0A7EDF" d="M23.839,1.912"/>
		<path fill="#0A7EDF" d="M38.485,21.415c0,0-12.476-10.81-13.189-11.422c-0.704-0.617-1.451-0.53-1.451-0.53
			s-0.741-0.085-1.452,0.53C21.686,10.605,9.2,21.416,9.2,21.416s-0.563,0.472-0.278,1.044c0.339,0.688,0.892,0.625,0.892,0.625
			h2.538v12.413c0,0-0.071,0.919,0.7,1.761c0.889,0.977,1.956,0.891,1.956,0.891h9.895v-0.003h7.78c0,0,1.065,0.09,1.95-0.888
			c0.771-0.842,0.701-1.761,0.701-1.761V23.083h2.539c0,0,0.553,0.067,0.889-0.621C39.043,21.885,38.485,21.415,38.485,21.415
			L38.485,21.415z M34.066,23.071v12.454c0,0-0.031,0.53-0.29,0.795c-0.263,0.273-1.047,0.538-1.047,0.538h-7.38h-2.954h-7.419
			c0,0-0.795-0.26-1.053-0.538c-0.258-0.265-0.286-0.795-0.286-0.795V23.071c0-1.831-2.901-1.307-2.901-1.307
			s12.301-10.603,12.542-10.803c0.235-0.202,0.593-0.21,0.593-0.21s0.322-0.02,0.592,0.21c0.261,0.227,12.481,10.803,12.481,10.803
			S34.066,21.24,34.066,23.071L34.066,23.071z"/>
	</g>
	<g>
		<path fill="#0A7EDF" d="M30.309,25.679c0-0.731-0.608-1.323-1.351-1.323c-0.577,0-1.067,0.36-1.257,0.865l-0.642,1.402
			c-0.046-0.028-0.815-0.626-3.017-0.626c-2.203,0-3.048,0.599-3.096,0.629l-0.607-1.318c-0.164-0.547-0.675-0.953-1.287-0.953
			c-0.746,0-1.349,0.591-1.349,1.323c0,0.609,0.421,1.114,0.99,1.271l0.832,2.104c0.261,0.892,1.564,0.914,1.564,0.914h5.827
			c0,0,1.302-0.021,1.566-0.914l0.831-2.104C29.884,26.792,30.309,26.287,30.309,25.679L30.309,25.679z"/>
		<path fill="#0A7EDF" d="M19.055,23.67c0.881,0,1.671,0.57,1.942,1.395l0.296,0.643c0.569-0.203,1.456-0.396,2.751-0.396
			c1.261,0,2.119,0.181,2.679,0.381l0.335-0.738c0.303-0.769,1.067-1.284,1.906-1.284c0.059,0,0.118,0.014,0.181,0.02
			c0-0.004,0-0.009,0-0.013c0-1.52-1.254-2.752-2.802-2.752c-0.197,0-0.386,0.021-0.569,0.058c-0.482-0.388-1.092-0.627-1.763-0.627
			c-0.672,0-1.28,0.241-1.765,0.627c-0.184-0.038-0.372-0.058-0.568-0.058c-1.548,0-2.803,1.232-2.803,2.752
			c0,0.002,0,0.009,0,0.013C18.932,23.681,18.993,23.67,19.055,23.67L19.055,23.67z"/>
		<path fill="#0A7EDF" d="M19.932,30.394l-0.526,1.033c-0.143,0.284-0.027,0.626,0.26,0.771c0.083,0.04,0.173,0.06,0.26,0.06
			c0.214,0,0.419-0.116,0.521-0.316l0.583-1.145c0.023-0.047,0.029-0.095,0.039-0.141C20.76,30.649,20.334,30.574,19.932,30.394
			L19.932,30.394z"/>
		<path fill="#0A7EDF" d="M28.081,30.394c-0.398,0.177-0.822,0.251-1.138,0.259c0.008,0.05,0.017,0.099,0.038,0.144l0.583,1.145
			c0.104,0.2,0.307,0.316,0.523,0.316c0.087,0,0.176-0.02,0.259-0.06c0.288-0.142,0.403-0.486,0.263-0.771L28.081,30.394
			L28.081,30.394z"/>
	</g>
</g>
</svg>
