<?xml version="1.0" encoding="utf-8"?>
<!-- Generator: Adobe Illustrator 16.0.0, SVG Export Plug-In . SVG Version: 6.00 Build 0)  -->
<!DOCTYPE svg PUBLIC "-//W3C//DTD SVG 1.1//EN" "http://www.w3.org/Graphics/SVG/1.1/DTD/svg11.dtd">
<svg version="1.1" id="图层_1" xmlns="http://www.w3.org/2000/svg" xmlns:xlink="http://www.w3.org/1999/xlink" x="0px" y="0px"
	 width="48px" height="48px" viewBox="0 0 48 48" enable-background="new 0 0 48 48" xml:space="preserve">
<g id="XMLID_1_">
	<g>
		<circle id="XMLID_49_" fill="#0A7EDF" cx="31.38" cy="12.925" r="2.871"/>
		<path id="XMLID_52_" fill="#0A7EDF" d="M33.262,27.084c-0.593,0-1.289,0.1-1.881,0.297c-0.494-1.088-0.989-2.08-1.387-2.87
			c-0.1-0.299-0.295-0.496-0.396-0.693c1.088,0,2.771,0.099,3.068,0.099c0.197,0,0.297-0.099,0.395-0.198l1.387-1.585
			c0.102-0.098,0.102-0.295,0.102-0.395c0-0.198-0.102-0.297-0.199-0.397c-0.102-0.099-0.297-0.099-0.397-0.099
			c-0.195,0-0.296,0.099-0.395,0.199l-0.89,0.99v-0.2c0-0.099,0-0.197-0.102-0.296c-0.1-0.098-0.199-0.098-0.199-0.098
			s0,0-0.196-0.1c-0.594-0.198-1.684-0.792-1.783-0.891c-0.989-0.594-1.882-1.484-2.674-2.573c0.494-0.395,0.793-0.692,1.089-1.089
			c0.394-0.592,0.594-1.089,0.394-1.683c-0.198-0.891-0.989-1.484-2.078-1.585c-1.286-0.197-2.673,0.297-4.258,1.287
			c-0.495,0.298-0.989,0.694-1.386,0.991l-0.097,0.198c-0.497,0.397-0.991,0.792-1.486,1.189c-0.593,0.493-1.089,1.087-1.484,1.582
			c-0.099,0.2-0.296,0.397-0.396,0.594c-0.099,0.197-0.396,0.792-0.494,1.288c-0.101,0.891,0.099,1.683,0.594,2.376l-1.087-0.101
			c-0.296,0-0.595,0.2-0.595,0.593c0,0.199,0.099,0.296,0.2,0.396c0.098,0.099,0.197,0.199,0.396,0.199h1.583l-1.683,2.97
			c-0.693-0.299-1.486-0.396-2.179-0.396c-3.169,0-5.743,2.575-5.743,5.743c0,3.169,2.574,5.547,5.743,5.547
			c2.871,0,5.347-2.18,5.742-5.151h3.762c0.2,0,0.395,0.101,0.495-0.101l4.454-7.919c0.396,0.691,0.793,1.582,1.191,2.476
			c-1.782,0.989-2.873,2.972-2.873,5.049c0,3.17,2.574,5.745,5.745,5.745c3.167,0,5.74-2.573,5.74-5.745
			C39.004,29.559,36.428,27.084,33.262,27.084z M14.647,37.279c-2.574,0-4.652-1.979-4.652-4.552s2.079-4.554,4.652-4.554
			c0.595,0,1.089,0.098,1.683,0.295l-2.474,4.257c-0.1,0.201-0.1,0.299,0,0.497c0.098,0.197,0.296,0.097,0.493,0.097h4.952
			C18.807,36.191,16.925,37.279,14.647,37.279z M15.342,32.232l1.979-3.566c1.188,0.792,1.881,2.573,1.979,3.566H15.342z
			 M21.976,32.33C21.976,32.33,21.976,32.232,21.976,32.33l-1.485-0.1c-0.098-1.98-0.991-3.371-2.574-4.356l1.879-3.268
			c0.099,0.1,0.2,0.199,0.298,0.199c0.198,0.197,0.495,0.298,0.693,0.497l0.197,0.197c0.497,0.396,0.99,0.694,1.386,1.189
			c0.296,0.495,0.496,1.087,0.496,1.785C22.864,30.053,22.37,31.241,21.976,32.33z M25.341,29.559
			c0.295-0.99,0.496-1.88,0.395-2.971c-0.1-0.695-0.295-1.19-0.694-2.181h3.167L25.341,29.559z M28.707,22.629h-0.1h-0.199
			c0,0-0.098,0-0.098,0.1c0,0-0.199,0.199-0.199,0.495c0,0.097,0,0.097,0,0.097h-3.763c-0.595-0.988-0.99-1.385-1.386-1.683
			c0.397-0.296,0.792-0.494,1.189-0.793c0.493-0.295,0.891-0.592,1.188-0.791c0.1-0.099,0.1-0.099,0.197-0.198
			c1.089,1.188,2.277,2.178,3.566,2.772C28.903,22.629,28.806,22.629,28.707,22.629z M33.262,37.479
			c-2.573,0-4.654-2.081-4.654-4.654c0-1.682,0.89-3.165,2.279-3.96c1.086,2.279,2.078,4.358,2.078,4.456
			c0.1,0.198,0.299,0.296,0.494,0.296c0.104,0,0.201,0,0.201-0.1c0.296-0.101,0.396-0.497,0.296-0.793c0,0-0.989-2.179-2.079-4.455
			c0.396-0.101,0.89-0.199,1.387-0.199c2.569,0,4.653,2.08,4.653,4.654C37.912,35.398,35.837,37.479,33.262,37.479z"/>
	</g>
	<path id="XMLID_67_" fill="#0A7EDF" d="M24,0C10.724,0,0,10.724,0,24c0,13.275,10.724,24,24,24c13.275,0,24-10.725,24-24
		C48,10.724,37.275,0,24,0z M24,46.979C11.336,46.979,1.021,36.664,1.021,24S11.336,1.021,24,1.021S46.979,11.336,46.979,24
		S36.664,46.979,24,46.979z"/>
</g>
</svg>
