<?xml version="1.0" encoding="utf-8"?>
<!-- Generator: Adobe Illustrator 16.0.0, SVG Export Plug-In . SVG Version: 6.00 Build 0)  -->
<!DOCTYPE svg PUBLIC "-//W3C//DTD SVG 1.1//EN" "http://www.w3.org/Graphics/SVG/1.1/DTD/svg11.dtd">
<svg version="1.1" id="图层_1" xmlns="http://www.w3.org/2000/svg" xmlns:xlink="http://www.w3.org/1999/xlink" x="0px" y="0px"
	 width="48px" height="48px" viewBox="0 0 48 48" enable-background="new 0 0 48 48" xml:space="preserve">
<g>
	<path fill="#D30909" d="M24.391,0.004c-9.175,0-16.61,7.279-16.61,16.258c0,8.98,11.096,20.884,16.61,31.741
		C30.141,37.146,41,25.242,41,16.263S33.563,0.004,24.391,0.004L24.391,0.004z M24.391,25.537c-5.16,0-9.343-4.115-9.343-9.192
		c0-5.076,4.183-9.192,9.343-9.192c5.159,0,9.343,4.116,9.343,9.192C33.732,21.422,29.55,25.537,24.391,25.537L24.391,25.537z
		 M24.391,12.26c-2.294,0-4.153,1.829-4.153,4.085c0,2.257,1.859,4.085,4.153,4.085c2.292,0,4.151-1.829,4.151-4.085
		C28.542,14.089,26.684,12.26,24.391,12.26L24.391,12.26z"/>
</g>
</svg>
